<svg width="512" height="512" viewBox="0 0 512 512" fill="none" xmlns="http://www.w3.org/2000/svg">
<g clip-path="url(#clip0_13_11)">
<path d="M54.0607 349.819L123.879 343.031C128.081 366.465 136.566 383.677 149.333 394.667C162.262 405.656 179.636 411.152 201.455 411.152C224.566 411.152 241.94 406.303 253.577 396.606C265.374 386.748 271.273 375.273 271.273 362.183C271.273 353.778 268.767 346.668 263.758 340.849C258.909 334.868 250.343 329.697 238.061 325.334C229.657 322.424 210.505 317.252 180.606 309.819C142.141 300.283 115.152 288.566 99.6364 274.666C77.8181 255.111 66.9091 231.272 66.9091 203.152C66.9091 185.051 71.9999 168.161 82.1819 152.485C92.5252 136.647 107.313 124.606 126.545 116.364C145.939 108.121 169.294 104 196.606 104C241.213 104 274.747 113.778 297.211 133.333C319.839 152.889 331.717 178.991 332.848 211.636L261.091 214.789C258.02 196.526 251.394 183.434 241.213 175.515C231.191 167.435 216.081 163.393 195.879 163.393C175.03 163.393 158.708 167.677 146.909 176.243C139.313 181.737 135.515 189.091 135.515 198.302C135.515 206.707 139.071 213.9 146.182 219.879C155.232 227.475 177.212 235.394 212.122 243.636C247.031 251.879 272.808 260.445 289.454 269.334C306.263 278.061 319.353 290.101 328.727 305.455C338.263 320.647 343.031 339.475 343.031 361.939C343.031 382.303 337.374 401.374 326.06 419.151C314.748 436.93 298.747 450.182 278.061 458.909C257.373 467.475 231.596 471.757 200.727 471.757C155.798 471.757 121.293 461.414 97.212 440.727C73.1313 419.879 58.7475 389.576 54.0607 349.819Z" fill="#2196F3"/>
<g filter="url(#filter0_d_13_11)">
<path d="M256 488.727C384.532 488.727 488.727 384.531 488.727 256C488.727 127.468 384.532 23.2725 256 23.2725C127.468 23.2725 23.2727 127.468 23.2727 256C23.2727 384.531 127.468 488.727 256 488.727Z" stroke="#2196F3" stroke-width="40" shape-rendering="crispEdges"/>
</g>
</g>
<defs>
<filter id="filter0_d_13_11" x="-0.727295" y="3.27344" width="513.455" height="513.453" filterUnits="userSpaceOnUse" color-interpolation-filters="sRGB">
<feFlood flood-opacity="0" result="BackgroundImageFix"/>
<feColorMatrix in="SourceAlpha" type="matrix" values="0 0 0 0 0 0 0 0 0 0 0 0 0 0 0 0 0 0 127 0" result="hardAlpha"/>
<feOffset dy="4"/>
<feGaussianBlur stdDeviation="2"/>
<feComposite in2="hardAlpha" operator="out"/>
<feColorMatrix type="matrix" values="0 0 0 0 0 0 0 0 0 0 0 0 0 0 0 0 0 0 0.25 0"/>
<feBlend mode="normal" in2="BackgroundImageFix" result="effect1_dropShadow_13_11"/>
<feBlend mode="normal" in="SourceGraphic" in2="effect1_dropShadow_13_11" result="shape"/>
</filter>
<clipPath id="clip0_13_11">
<rect width="512" height="512" fill="white"/>
</clipPath>
</defs>
</svg>
